<svg width="163" height="76" viewBox="0 0 163 76" fill="none" xmlns="http://www.w3.org/2000/svg">
<g clip-path="url(#clip0_3270_1706)">
<path d="M41.9944 64.5551C41.1455 64.286 39.6792 64.5295 39.2548 64.5808L26.7015 66.4135C23.1516 66.9133 19.6274 67.4131 16.0903 67.9771C13.5823 68.3872 9.92946 69.0152 8.56608 69.1561C7.7815 69.2459 6.82972 69.4125 6.08372 69.0024C5.40204 68.6179 5.0419 67.8361 4.96473 67.0927L5.18338 8.27924C5.18338 6.8951 6.23806 5.44687 7.33133 5.53658L24.3992 6.49779C24.8108 6.49779 25.5182 6.63877 25.8012 6.30555C25.9426 6.12612 25.9812 5.8698 25.8912 5.66474C25.7626 5.38279 25.4539 5.24181 25.1452 5.17773C23.1902 4.75479 21.2351 4.33186 19.2801 3.90892C16.0775 3.21685 12.8749 2.52478 9.67222 1.84552C7.35706 1.32005 5.01618 0.820222 2.67529 0.32039L2.16081 0.205045C1.0161 -1.42499e-05 0 1.12781 0 2.58886L0.167206 73.4496C0.167206 74.9875 2.08364 76.1282 3.27981 75.8077C4.34735 75.5386 5.4149 75.2695 6.46958 75.0131C9.09343 74.3595 11.7044 73.7059 14.3283 73.0523C17.6467 72.2192 20.965 71.3862 24.2834 70.5659C27.4475 69.7713 30.6115 68.9895 33.7756 68.1949C35.9364 67.6566 38.0844 67.1184 40.2452 66.5801C40.9011 66.4135 41.8529 66.311 42.3417 65.8496C42.8304 65.3754 42.586 64.7602 41.9815 64.568L41.9944 64.5551Z" fill="#B7B6B6"/>
<path d="M49.8145 64.9653C50.3418 64.8115 50.9592 64.7474 51.6409 64.7474C52.8885 64.7474 53.7631 65.0422 54.419 65.5933C55.3322 66.3366 56.0139 67.7721 56.0139 70.0918C56.0139 72.6294 55.3451 74.0135 54.5863 74.7697C53.8145 75.5899 52.6955 75.9744 51.3193 75.9744C50.7791 75.9744 50.2132 75.936 49.8145 75.8591V64.9781V64.9653ZM51.165 74.8594C51.3579 74.8979 51.5508 74.8979 51.6794 74.8979C53.1714 74.8979 54.612 73.8982 54.612 70.1174C54.612 67.3235 53.6988 65.7855 51.8081 65.7855C51.6023 65.7855 51.3579 65.7984 51.1778 65.8496V74.8594H51.165Z" fill="#010101"/>
<path d="M71.1015 64.7987H69.751V75.8975H71.1015V64.7987Z" fill="#010101"/>
<path d="M91.1916 75.6156C90.6771 75.8078 89.8411 76 89.0822 76C88.0404 76 87.0757 75.7309 86.2912 74.9107C85.4294 74.052 84.8506 72.5269 84.8635 70.5019C84.8764 66.1828 87.2301 64.709 89.3266 64.709C90.0597 64.709 90.6385 64.8371 91.0115 65.0166L90.7157 66.1059C90.3941 65.9522 89.9826 65.8368 89.3523 65.8368C87.8732 65.8368 86.2783 66.939 86.2783 70.3866C86.2783 73.8341 87.6674 74.9107 89.0822 74.9107C89.5324 74.9107 89.8025 74.8338 89.9054 74.7825V71.1555H88.3748V70.1046H91.1787V75.6284L91.1916 75.6156Z" fill="#010101"/>
<path d="M106.497 64.7987H105.146V75.8975H106.497V64.7987Z" fill="#010101"/>
<path d="M122.15 65.9393H119.989V64.7987H125.661V65.9393H123.501V75.8975H122.15V65.9393Z" fill="#010101"/>
<path d="M139.746 72.5781L138.961 75.9103H137.662L140.363 64.8115H141.855L144.492 75.9103H143.154L142.37 72.5781H139.759H139.746ZM142.19 71.5528L141.572 68.7333C141.392 67.9387 141.238 67.0159 141.096 66.1957H141.032C140.89 67.0415 140.71 67.9899 140.556 68.7333L139.939 71.5528H142.19V71.5528Z" fill="#010101"/>
<path d="M158.087 64.7987H159.437V74.8338H162.769V75.8975H158.087V64.7987Z" fill="#010101"/>
<path d="M20.6949 34.3218H14.4697V59.4928H20.6949V34.3218Z" fill="#010101"/>
<path d="M41.2095 26.85V59.4928H34.7141V26.85H27.3828V21.3518H48.5279V26.85H41.2095Z" fill="#010101"/>
<path d="M63.3192 55.4045C62.9205 56.9168 62.1874 58.0831 61.1198 58.9289C60.0523 59.7748 58.6375 60.1977 56.8754 60.1977C56.0651 60.1977 55.2419 60.0567 54.393 59.762C53.5441 59.48 52.7853 59.0058 52.1036 58.3394C51.4219 57.6729 50.8688 56.8143 50.4187 55.7505C49.9814 54.6868 49.7627 53.4051 49.7627 51.8928C49.7627 49.9576 50.1228 48.3684 50.8302 47.1252C51.5505 45.882 52.4637 44.908 53.5827 44.1903C54.7017 43.4726 55.9493 42.9728 57.3255 42.7036C58.7018 42.4345 60.0523 42.2935 61.3771 42.2935H62.9205V41.4348C62.9205 39.6021 62.5475 38.282 61.7887 37.4746C61.0298 36.6672 60.0394 36.2571 58.7918 36.2571C57.7243 36.2571 56.7596 36.5006 55.8979 36.9876C55.0361 37.4746 54.2901 38.1154 53.6727 38.8972L50.7016 35.078C51.7306 33.822 53.0296 32.848 54.6117 32.1431C56.1937 31.4382 57.75 31.0922 59.2934 31.0922C61.0169 31.0922 62.4832 31.3613 63.6665 31.8996C64.8627 32.4379 65.8273 33.2196 66.5605 34.2449C67.2936 35.2702 67.8209 36.539 68.1296 38.0385C68.4383 39.5508 68.5927 41.2554 68.5927 43.1522V59.48H63.4221V55.3917H63.3064L63.3192 55.4045ZM55.8336 48.817C55.8336 48.1121 55.3319 50.4446 55.3319 51.4186C55.3319 52.854 55.6535 53.9178 56.2966 54.5971C56.9397 55.2763 57.6857 55.6223 58.5217 55.6223C59.3577 55.6223 60.078 55.3917 60.6697 54.9175C61.2613 54.4561 61.7243 53.8537 62.0716 53.136C62.4189 52.4183 62.6761 51.6237 62.8433 50.7394C63.0105 49.8551 63.0877 49.0092 63.0877 48.1761V46.6126H61.2742C60.5025 46.6126 59.7565 46.6766 59.0491 46.8048C58.3288 46.933 57.6985 47.1765 57.1455 47.5353" fill="#010101"/>
<path d="M84.1949 18.7629H77.9697V59.4928H84.1949V18.7629Z" fill="#010101"/>
<path d="M98.5225 47.3175C98.5225 48.394 98.6383 49.4065 98.8569 50.3549C99.0756 51.3033 99.3971 52.1363 99.8216 52.8284C100.246 53.5333 100.761 54.0844 101.365 54.4945C101.97 54.9046 102.677 55.1097 103.487 55.1097C104.619 55.1097 105.532 54.7508 106.214 54.0331C106.896 53.3154 107.436 52.4952 107.835 51.5596L112.401 54.1485C111.59 56.0581 110.446 57.5704 108.954 58.6982C107.462 59.8261 105.571 60.39 103.256 60.39C99.9888 60.39 97.365 59.134 95.3842 56.622C93.4035 54.11 92.4131 50.4959 92.4131 45.7923C92.4131 43.6008 92.6703 41.6014 93.1848 39.7815C93.6993 37.9745 94.4324 36.4109 95.3842 35.1164C96.336 33.822 97.4679 32.8223 98.7669 32.1303C100.066 31.4254 101.532 31.0793 103.14 31.0793C104.941 31.0793 106.471 31.4382 107.732 32.1559C108.992 32.8736 110.021 33.8476 110.819 35.0908C111.603 36.334 112.182 37.795 112.555 39.4868C112.915 41.1785 113.108 43.0112 113.108 44.9849V47.3046H98.5097L98.5225 47.3175ZM107.166 42.8959C107.166 40.8453 106.831 39.192 106.175 37.9104C105.519 36.6416 104.49 36.0008 103.089 36.0008C102.278 36.0008 101.597 36.2315 101.018 36.7057C100.452 37.167 99.9888 37.7566 99.6415 38.4615C99.2943 39.1664 99.0241 39.9097 98.8441 40.7299C98.664 41.5374 98.574 42.2679 98.574 42.9087H107.166V42.8959Z" fill="#010101"/>
<path d="M127.27 32.0149V36.3724H127.385C127.9 34.8986 128.749 33.6554 129.945 32.6301C131.141 31.6048 132.62 31.0922 134.382 31.0922C135.926 31.0922 137.16 31.4126 138.099 32.0406C139.038 32.6686 139.759 33.5016 140.273 34.5397C140.788 35.5778 141.135 36.7697 141.315 38.1283C141.495 39.4739 141.585 40.8453 141.585 42.2422V59.48H135.36V42.2422C135.36 41.563 135.321 40.8709 135.244 40.166C135.167 39.4611 135.013 38.8331 134.781 38.2564C134.537 37.6797 134.189 37.2183 133.739 36.8851C133.276 36.539 132.684 36.3724 131.951 36.3724C130.549 36.3724 129.443 37.0517 128.62 38.423C127.797 39.7944 127.385 41.5117 127.385 43.6008V59.4928H121.16V32.0149H127.27V32.0149Z" fill="#010101"/>
<path d="M158.1 36.7184V50.829C158.1 52.3413 158.331 53.4307 158.794 54.11C159.257 54.7892 159.965 55.1353 160.916 55.1353C161.251 55.1353 161.585 55.0968 161.932 55.0327C162.28 54.9558 162.588 54.8533 162.846 54.7123L162.961 59.4543C162.524 59.6722 161.932 59.8516 161.199 59.9926C160.466 60.1336 159.733 60.2105 159 60.2105C156.608 60.2105 154.897 59.5184 153.855 58.1342C152.813 56.7501 152.286 54.7636 152.286 52.1875V36.7312H148.762V32.0405H152.286V25.0428H158.125V32.0405H163.026V36.7312H158.125L158.1 36.7184Z" fill="#010101"/>
<path d="M31.9497 6.0109L30.5734 11.4321L29.9561 10.7144L31.1265 5.08813L31.9497 6.0109Z" fill="#010101"/>
<path d="M20.8496 21.1852L27.4735 14.0082L28.2838 13.9441L21.4798 23.1461L20.8496 21.1852Z" fill="#010101"/>
<path d="M21.7624 21.1852H14.0195V28.5545H21.7624V21.1852Z" fill="#065FAA"/>
<path d="M31.5509 13.5596L30.6248 9.81726L26.4189 10.7528L27.6923 14.7387L31.5509 13.5596Z" fill="#1AAFE6"/>
<path d="M32.5474 0.0145211L28.499 2.85596L31.3506 6.88992L35.399 4.04849L32.5474 0.0145211Z" fill="#4A4A4B"/>
</g>
<defs>
<clipPath id="clip0_3270_1706">
<rect width="163" height="76" fill="white"/>
</clipPath>
</defs>
</svg>
